<svg width="114" height="40" viewBox="0 0 114 40" fill="none" xmlns="http://www.w3.org/2000/svg">
<g clip-path="url(#clip0)">
<path d="M47.9557 28.2926V14.6109L50.6236 12.7797V28.2926H47.9557Z" fill="black"/>
<path d="M66.5957 20.4205C66.5957 21.7124 66.4018 22.8501 66.0139 23.8336C65.6259 24.8098 65.0953 25.6282 64.4219 26.2888C63.7485 26.9494 62.9507 27.4485 62.0285 27.7862C61.1136 28.1238 60.1255 28.2926 59.0642 28.2926H53.3683V12.7797H58.4054C59.6058 12.7797 60.7074 12.9301 61.7101 13.2311C62.7128 13.532 63.5765 13.9944 64.3011 14.6183C65.0257 15.2422 65.5893 16.0349 65.9919 16.9965C66.3945 17.958 66.5957 19.0994 66.5957 20.4205ZM63.335 20.4205C63.335 19.5177 63.2106 18.7434 62.9617 18.0974C62.7202 17.4515 62.3798 16.9231 61.9407 16.512C61.5015 16.0937 60.9745 15.7854 60.3597 15.5872C59.7522 15.389 59.0788 15.2899 58.3396 15.2899H56.6071V25.7824H58.7897C59.4411 25.7824 60.0413 25.6686 60.5903 25.4411C61.1465 25.2135 61.6259 24.8759 62.0285 24.4282C62.4384 23.9731 62.7568 23.4116 62.9837 22.7436C63.2179 22.0757 63.335 21.3013 63.335 20.4205Z" fill="black"/>
<path d="M68.7805 28.2926V12.7797H78.1983V15.2899H71.4374V19.1874H77.0872V21.6977H71.4374V25.7824H78.5606V28.2926H68.7805Z" fill="black"/>
<path d="M91.7242 28.2926L90.3519 24.3291H84.4562L83.0839 28.2926H79.8451L86.0504 12.7797H88.7468L94.9301 28.2926H91.7242ZM87.5391 17.4258C87.4513 17.169 87.3634 16.9121 87.2756 16.6552C87.1951 16.3909 87.1219 16.1524 87.056 15.9395C86.9975 15.7193 86.9462 15.5395 86.9023 15.4C86.8657 15.2606 87.4059 15.1835 87.3986 15.1688C87.3912 15.1909 87.9314 15.2716 87.8948 15.411C87.8582 15.5505 87.807 15.7267 87.7411 15.9395C87.6825 16.1524 87.6094 16.3909 87.5215 16.6552C87.441 16.9121 87.3568 17.169 87.269 17.4258L85.743 21.8849H89.0652L87.5391 17.4258Z" fill="black"/>
<path d="M107.106 23.8226C107.106 24.5272 107 25.1695 106.788 25.7493C106.583 26.3219 106.257 26.8136 105.81 27.2247C105.371 27.6357 104.808 27.955 104.12 28.1825C103.439 28.4027 102.623 28.5128 101.671 28.5128C100.83 28.5128 100.087 28.4211 99.4426 28.2376C98.8058 28.0541 98.2569 27.7825 97.7958 27.4228C97.3346 27.0632 96.5753 26.4122 96.1537 25.1063L98.4314 23.7345C98.5046 24.0795 98.6865 24.5184 98.8695 24.7606C99.0086 25.0469 99.2779 25.2172 99.5194 25.43C99.761 25.6356 100.061 25.797 100.42 25.9145C100.786 26.0246 101.228 26.0796 101.748 26.0796C102.648 26.0796 103.336 25.9145 103.812 25.5842C104.288 25.2466 104.526 24.7217 104.526 24.0098C104.526 23.5841 104.431 23.2354 104.24 22.9638C104.05 22.6923 103.794 22.4684 103.472 22.2922C103.157 22.1161 102.791 21.9693 102.374 21.8518C101.964 21.7344 101.532 21.6206 101.078 21.5105C101.078 21.5105 100.716 21.4041 99.9915 21.1912C99.6329 21.0811 99.2889 20.949 98.9595 20.7949C98.6375 20.6407 98.3337 20.4573 98.0483 20.2444C97.7701 20.0315 97.5249 19.771 97.3127 19.4627C97.1077 19.1471 96.9467 18.7801 96.8296 18.3617C96.7125 17.9433 96.6539 17.4516 96.6539 16.8864C96.6539 16.1157 96.7784 15.4551 97.0272 14.9046C97.2834 14.3541 97.6347 13.9064 98.0812 13.5614C98.535 13.2091 99.0693 12.9522 99.6841 12.7907C100.299 12.6292 100.972 12.5485 101.704 12.5485C102.531 12.5485 103.241 12.6292 103.834 12.7907C104.427 12.9448 104.921 13.1834 105.316 13.5063C105.719 13.8293 106.183 14.4128 106.41 14.9046L104.207 16.3006C103.777 15.7032 103.805 15.6936 103.395 15.356C102.992 15.0184 102.414 14.8495 101.66 14.8495C101.192 14.8495 100.8 14.9009 100.486 15.0037C100.178 15.0991 99.933 15.2312 99.75 15.4C99.567 15.5689 99.4353 15.767 99.3548 15.9946C99.2816 16.2148 99.245 16.4497 99.245 16.6992C99.245 17.0809 99.3182 17.3965 99.4646 17.646C99.6183 17.8883 99.8305 18.0938 100.101 18.2626C100.372 18.4241 100.694 18.5635 101.067 18.681C101.441 18.7911 101.854 18.9049 102.308 19.0223C102.703 19.1251 103.095 19.2352 103.483 19.3526C103.871 19.4627 104.24 19.5948 104.592 19.7489C104.95 19.9031 105.283 20.0903 105.591 20.3104C105.898 20.5306 106.162 20.8022 106.381 21.1252C106.608 21.4408 106.784 21.8188 106.908 22.2592C107.04 22.6996 107.106 23.2207 107.106 23.8226Z" fill="black"/>
<path d="M109.645 12.6011V5.00167L113.868 1.88794V9.45841L109.645 12.6011Z" fill="black"/>
<path d="M107.196 0.38916C107.199 0.701811 107.452 1.00105 107.899 1.2215C108.346 1.44196 108.95 1.5657 109.58 1.5657C110.21 1.5657 110.815 1.44196 111.261 1.2215C111.708 1.00105 111.961 0.701811 111.964 0.38916V1.52703C111.961 1.83968 111.708 2.13892 111.261 2.35938C110.815 2.57983 110.21 2.70357 109.58 2.70357C108.95 2.70357 108.346 2.57983 107.899 2.35938C107.452 2.13892 107.199 1.83968 107.196 1.52703V0.38916Z" fill="black"/>
<path d="M39.6261 0.267578H0.270874V39.7325H39.6261V0.267578Z" fill="white"/>
<path d="M37.0072 16.6727C36.9408 17.9026 36.5514 19.4345 36.2078 20.4578C34.8235 24.5814 33.219 27.1364 29.5045 27.1364C28.4109 27.1364 26.4688 26.8459 25.7555 24.8949L25.5847 24.4309L25.2803 24.8179C24.119 26.2947 22.3922 27.1466 20.544 27.1549C19.1263 27.1617 17.9863 26.6852 17.2501 25.778L17.0474 25.5275L16.8326 25.7652C16.0448 26.6368 14.6741 27.1364 13.071 27.1364C11.8125 27.1364 10.7257 26.7093 10.0107 25.9307L9.81603 25.7171L9.61277 25.9237C8.81818 26.7276 7.56596 27.133 5.99085 27.0973C4.07959 27.0514 2.91632 25.9811 2.87914 24.2346C2.82126 21.5415 5.4201 15.8746 6.49655 14.1521C7.19568 13.0015 8.15583 12.4434 9.43381 12.4434C10.3041 12.4434 10.8983 12.6259 11.2528 13.0015C11.574 13.3437 11.6381 13.6319 11.6661 14.3244L11.7039 15.2201L12.1751 14.4587C13.3162 12.6145 15.2062 12.3607 17.0802 12.3607C18.3829 12.3607 19.5193 12.8407 19.9756 13.5848L20.1445 13.8581L20.3884 13.6502C21.3537 12.8269 22.7164 12.3733 24.2234 12.3733C25.869 12.3733 27.0655 12.7833 27.7789 13.594C27.9404 13.7777 28.0479 13.9063 28.1969 14.2199L28.3801 14.6057L28.656 14.2795C29.6992 13.0404 31.126 12.4123 32.8963 12.4123C34.298 12.4123 35.3606 12.7854 36.0567 13.5216C36.9314 14.4461 37.0563 15.746 37.0072 16.6727ZM0.270874 39.7325H39.6261V0.267578H0.270874V39.7325Z" fill="#FFFF00"/>
<path d="M38.1155 18.1874C37.9368 19.6227 36.9681 22.2836 36.4551 23.3469C35.0741 26.1981 33.2305 28.3892 29.6794 28.3892C27.7821 28.3892 26.2212 27.7806 25.3086 26.6162C23.9723 27.7898 22.3176 28.4053 20.5369 28.4053C19.1634 28.4053 17.9512 28.008 17.0271 27.273C16.0057 27.9942 14.6292 28.3961 13.1022 28.3961C11.8277 28.3961 10.6809 28.0458 9.78258 27.397C8.78977 28.0573 7.48842 28.3859 5.96019 28.349C3.41803 28.2892 1.66263 26.6724 1.61218 24.3252C1.54527 21.2061 4.16469 15.4979 5.39966 13.5204C6.32263 11.9989 7.73337 11.1813 9.46023 11.1813C11.3354 11.1813 12.0155 11.7187 12.3493 12.4019C13.7967 11.1686 15.7147 11.0985 17.0797 11.0985C18.5878 11.0985 19.533 11.4992 20.3375 12.1424C21.4494 11.4739 22.7229 11.1272 24.2413 11.1272C26.1832 11.1272 27.624 11.5796 28.6293 12.5764C29.802 11.5969 31.2722 11.1512 32.9155 11.1512C35.0899 11.1512 36.5202 11.9379 37.3607 13.1092C38.5438 14.7631 38.3331 16.4281 38.1155 18.1874ZM0.270874 39.7325H39.6261V0.267578H0.270874V39.7325Z" fill="#FF0000"/>
<path d="M0.548445 0.55119H39.3385V39.45H0.548445V0.55119ZM0 40H39.8872V0H0V40Z" fill="black"/>
<path d="M38.0973 11.109C37.5684 11.109 37.1423 11.5373 37.1423 12.0691C37.1423 12.5996 37.5684 13.0257 38.0973 13.0257C38.6275 13.0257 39.0546 12.5996 39.0546 12.0691C39.0546 11.5373 38.6275 11.109 38.0973 11.109ZM38.0973 11.2985C38.522 11.2985 38.868 11.6429 38.868 12.0691C38.868 12.4927 38.5221 12.8395 38.0973 12.8395C37.6736 12.8395 37.3323 12.4927 37.3323 12.0691C37.3323 11.643 37.6735 11.2985 38.0973 11.2985ZM38.584 12.5685L38.4694 12.3688C38.3698 12.193 38.3412 12.1667 38.2575 12.1356V12.1311C38.4248 12.1115 38.5245 12.0025 38.5245 11.8531C38.5245 11.6959 38.4248 11.5765 38.212 11.5765H37.7196V12.5686H37.9232V12.1621H37.9599C38.0468 12.1621 38.0825 12.1713 38.1225 12.2115C38.1615 12.2517 38.2222 12.3355 38.2577 12.4067L38.3368 12.5686H38.584V12.5685ZM37.9231 12.0025V11.7314H38.1063C38.2416 11.7314 38.3125 11.7786 38.3125 11.8658C38.3125 11.9358 38.2679 12.0024 38.1305 12.0024H37.9231V12.0025Z" fill="black"/>
<path d="M33.1593 16.5935C33.1181 17.6156 31.6249 21.7025 31.0947 22.6039C30.8647 22.9954 30.6058 23.3182 30.1386 23.317C29.731 23.317 29.5499 23.0275 29.5385 22.6969C29.5086 21.7747 31.1966 17.1516 31.7738 16.3994C32.0302 16.0032 32.3164 15.939 32.6441 15.9435C33.1228 15.9494 33.1708 16.2962 33.1593 16.5935ZM35.8802 18.2621C35.5413 19.9559 34.7785 21.9596 33.9494 23.4526C32.5982 25.8893 30.9573 26.2303 29.5248 26.2131C28.0935 26.1959 26.4766 25.6655 26.465 23.449C26.456 21.8574 27.1407 19.6112 27.7226 18.1391C28.7347 15.4692 29.7699 13.2932 33.0425 13.3322C36.8581 13.377 36.178 16.7807 35.8802 18.2621ZM23.7638 15.8884C23.2107 15.8884 22.85 16.2387 22.581 16.6176C21.9901 17.4501 20.7076 20.7883 20.5085 22.1595C20.3733 23.0989 20.7764 23.2894 21.2194 23.2894C21.9282 23.2894 22.723 22.5373 22.9942 21.2959C22.9942 21.2959 21.6441 21.2625 22.0164 20.0624C22.3772 18.8969 23.0643 18.6454 24.2013 18.5983C26.4422 18.5064 26.2202 20.1657 26.0415 21.05C25.4596 23.9233 23.4204 26.2313 20.5357 26.2313C18.561 26.2313 17.3357 25.1347 17.3357 23.116C17.3357 21.6782 18.0474 19.4195 18.6113 18.0978C19.812 15.2844 21.0715 13.315 24.2803 13.315C26.2051 13.315 27.7236 14.0085 27.5003 15.8172C27.3377 17.1447 26.6757 17.9243 25.4724 18.0185C25.1357 18.0448 23.7581 18.0093 24.2151 16.7025C24.3741 16.2467 24.4405 15.8884 23.7638 15.8884ZM13.7252 20.8631C13.5924 21.2224 13.3428 21.9724 13.1413 22.7682C13.7957 22.6051 14.2869 22.4892 15.1286 22.5109C16.0882 22.5338 16.7015 22.9336 16.7015 23.7282C16.7015 25.6562 14.5767 26.2224 13.1024 26.2224C11.4832 26.2224 10.0621 25.2979 10.0621 23.5237C10.0621 21.4417 11.1866 18.2873 12.2418 16.1858C13.5387 13.6043 14.8636 13.2609 17.1446 13.2609C18.1473 13.2609 19.302 13.6904 19.302 14.6389C19.302 15.955 18.1907 16.4568 17.088 16.5211C16.6178 16.5474 15.8936 16.5738 15.4608 16.5429C15.4608 16.5429 15.0937 17.1045 14.7033 18.1024C16.7445 17.8141 17.6102 18.2793 17.2655 19.4631C16.7999 21.0617 15.4171 21.1674 13.7252 20.8631ZM7.22444 22.7129C9.22093 22.3652 9.72318 23.0897 9.65958 23.758C9.47239 25.7652 7.63614 26.2131 6.04218 26.1764C4.88621 26.1488 3.84694 25.6184 3.81786 24.2725C3.76755 21.9183 6.16193 16.4718 7.28976 14.6666C7.80966 13.8089 8.444 13.3862 9.45579 13.3862C10.4137 13.3862 10.6519 13.8788 10.6375 14.4702C10.6002 16.0468 8.05806 20.8401 7.22444 22.7129ZM32.8961 12.1369C30.8349 12.1369 29.4104 12.9567 28.4461 14.1005C28.2835 13.7583 28.1587 13.6079 27.9846 13.4103C27.1956 12.5158 25.9256 12.0977 24.2229 12.0977C22.5591 12.0977 21.1723 12.6191 20.2094 13.4401C19.709 12.6248 18.5174 12.0839 17.0797 12.0839C15.2013 12.0839 13.1554 12.3515 11.9406 14.3129C11.9124 13.6066 11.8478 13.2334 11.4516 12.812C10.9706 12.3021 10.192 12.1677 9.43335 12.1677C8.05062 12.1677 7.01082 12.773 6.26243 14.0064C5.17696 15.7461 2.54427 21.4694 2.60441 24.2404C2.64158 26.0318 3.84004 27.3213 5.98363 27.3719C7.65897 27.4121 8.9724 26.9631 9.80828 26.1179C10.5579 26.9332 11.7023 27.4132 13.0708 27.4132C14.5949 27.4132 16.1299 26.9551 17.0363 25.9515C17.8001 26.8908 19.0007 27.4374 20.545 27.4304C22.565 27.4213 24.3375 26.4613 25.4965 24.989C26.1307 26.7241 27.7431 27.4132 29.5044 27.4132C33.3634 27.4132 35.0569 24.7536 36.4689 20.5461C36.7872 19.5975 37.211 18.0163 37.282 16.6878C37.3986 14.4761 36.4654 12.1369 32.8961 12.1369Z" fill="black"/>
</g>
<defs>
<clipPath id="clip0">
<rect width="114" height="40" fill="white"/>
</clipPath>
</defs>
</svg>
